<svg id="undraw_code" xmlns="http://www.w3.org/2000/svg" width="75.034" height="55.568" viewBox="0 0 75.034 55.568">
  <path id="Path_7092" data-name="Path 7092" d="M15.534,9.4.93,25.123c-1.782,1.919-.839,4.536,1.433,5.428a46.642,46.642,0,0,1,15.963,10.6c2.949,2.97,7.543-1.622,4.593-4.593A54.359,54.359,0,0,0,4.09,24.288l1.433,5.428,14.6-15.723c2.842-3.06-1.741-7.663-4.593-4.593h0Z" transform="translate(0 2.508)" fill="#fff"/>
  <path id="Path_7093" data-name="Path 7093" d="M43.131,13.993l14.6,15.723,1.433-5.428A54.36,54.36,0,0,0,40.338,36.559c-2.949,2.969,1.642,7.564,4.593,4.593a46.64,46.64,0,0,1,15.963-10.6c2.272-.892,3.215-3.509,1.433-5.428L47.723,9.4c-2.851-3.069-7.436,1.532-4.593,4.593h0Z" transform="translate(11.778 2.508)" fill="#fff"/>
  <path id="Path_7094" data-name="Path 7094" d="M26.17,53.178,45.326,4.116c.638-1.634-.7-3.564-2.268-3.995A3.323,3.323,0,0,0,39.062,2.39L19.907,51.451c-.638,1.634.7,3.564,2.268,3.995a3.323,3.323,0,0,0,3.995-2.268h0Z" transform="translate(5.904 0)" fill="#fff"/>
</svg>
