<svg id="undraw_fun-star" xmlns="http://www.w3.org/2000/svg" width="47.024" height="71.643" viewBox="0 0 47.024 71.643">
  <path id="Path_7095" data-name="Path 7095" d="M22.075,32.606c-4.314,1.832-7.651,5.9-12.406,6.624l4.014,4.014L14.952,34.9q.3-1.958.6-3.915a4.732,4.732,0,0,0-.838-3.651A38.147,38.147,0,0,0,4.788,16.614L3.141,22.695a41.615,41.615,0,0,0,7.85-.913,35.289,35.289,0,0,0,3.956-1.1,10.052,10.052,0,0,0,3.677-1.712,7.5,7.5,0,0,0,1.6-2.921l1.573-3.9,3.267-8.1L19.1,4.834a50.131,50.131,0,0,1,6.521,11.83,3.386,3.386,0,0,0,3.147,2.4,3.3,3.3,0,0,0,3.147-2.4l.072-.333-3.147,2.4,14.929,1.739L41.464,14.9l-5.811,6.139L32.747,24.1a6.681,6.681,0,0,0-1.988,2.75c-.632,2.487-.1,5.684.213,8.192a49.728,49.728,0,0,0,1.666,8.033l4.014-4.014a33.278,33.278,0,0,1-5.969-2.686c-1.5-.863-3.562-1.882-4.653-3.264s-3.471-1.144-4.615,0a3.344,3.344,0,0,0,0,4.615c1.379,1.746,4.07,3.19,5.974,4.284a42.209,42.209,0,0,0,7.528,3.344,3.288,3.288,0,0,0,4.014-4.014,41.85,41.85,0,0,1-1.507-6.9c-.148-1.213-.23-2.438-.268-3.66q-.024-.764-.02-1.529c0-.31.036-1.162-.053-.791l-.839,1.44,9.834-10.389c2.1-2.217.426-5.252-2.307-5.57L28.842,12.2A3.259,3.259,0,0,0,25.7,14.6l-.072.333h6.293A56.142,56.142,0,0,0,24.737,1.54a3.317,3.317,0,0,0-5.964.779l-5.323,13.2.839-1.44-.321.324,1.44-.839A34.307,34.307,0,0,1,3.141,16.168C-.323,16.245-1,20.39,1.494,22.249a30.527,30.527,0,0,1,8.135,9.322L9.3,29.057C8.45,33.15,8.019,37.376,7.39,41.509A3.324,3.324,0,0,0,11.4,45.523c5.423-.821,9.094-5.214,13.965-7.282,1.623-.689,1.98-3.082,1.171-4.465-.982-1.679-2.836-1.862-4.464-1.171Z" transform="translate(0 0)" fill="#fff"/>
  <g id="Group_56078" data-name="Group 56078" transform="translate(13.759 36.597)">
    <path id="Path_7096" data-name="Path 7096" d="M12.178,30.44a24.1,24.1,0,0,0,2.7,22.528A24.482,24.482,0,0,0,35.12,63.079c4.193-.1,4.208-6.627,0-6.526a17.8,17.8,0,0,1-14.86-7.235,18.029,18.029,0,0,1-1.789-17.142c.655-1.637-.715-3.584-2.279-4.014a3.342,3.342,0,0,0-4.014,2.279h0Z" transform="translate(-10.541 -28.038)" fill="#fff"/>
    <path id="Path_7097" data-name="Path 7097" d="M18.843,30.657A17.517,17.517,0,0,0,20.8,46.933,17.879,17.879,0,0,0,35.6,54.39a3.263,3.263,0,1,0,0-6.526,14.814,14.814,0,0,1-1.655-.045c-.265-.023-.651-.1-.178-.015-.3-.055-.592-.108-.886-.175a14.255,14.255,0,0,1-1.447-.415c-.044-.015-.953-.367-.343-.109-.231-.1-.458-.208-.682-.321a14.85,14.85,0,0,1-1.438-.823c-.211-.137-.416-.282-.62-.427-.285-.2.267.248-.17-.139-.414-.367-.821-.735-1.2-1.14-.171-.183-.336-.373-.5-.563-.611-.712.3.486-.221-.3-.284-.429-.56-.858-.8-1.312-.145-.271-.279-.548-.409-.827.195.42,0-.018-.077-.217a14.587,14.587,0,0,1-.486-1.62c-.059-.25-.111-.5-.157-.754s-.084-.68-.039-.2a16.6,16.6,0,0,1-.084-1.691c0-.257.01-.513.025-.769,0-.054.1-1.053.01-.357a13.357,13.357,0,0,1,.892-3.256,3.274,3.274,0,0,0-2.279-4.014,3.36,3.36,0,0,0-4.014,2.279h0Z" transform="translate(-8.364 -27.965)" fill="#fff"/>
  </g>
</svg>
