<svg xmlns="http://www.w3.org/2000/svg" xmlns:xlink="http://www.w3.org/1999/xlink" width="91.953" height="92.675" viewBox="0 0 91.953 92.675">
  <defs>
    <clipPath id="clip-path">
      <rect id="Rectangle_17230" data-name="Rectangle 17230" width="90.523" height="90.523" transform="translate(0 0)" fill="#fff"/>
    </clipPath>
  </defs>
  <g id="Group-202-1" transform="translate(0 -20.054)">
    <path id="Path_9947" data-name="Path 9947" d="M77.3,21.056c20.518,5.5,27.349,25.155,21.851,45.673S77.9,100.855,57.386,95.357,15.2,74.588,20.7,54.07,56.777,15.558,77.3,21.056Z" transform="translate(-9.018 0)" fill="#dee8f1"/>
    <g id="Group_57411" data-name="Group 57411" transform="translate(0 22.206)" clip-path="url(#clip-path)">
      <path id="Path_9948" data-name="Path 9948" d="M12.591,111.9c2.377-10.185,5.809-14.68,9.969-16.2s8.847-.081,13.534,1.369a42.242,42.242,0,0,0,9.573,2.247,10.711,10.711,0,0,0,8.715-3.085,6.485,6.485,0,0,0,1.453-2.937,31.7,31.7,0,0,0,.99-7.127c.66-10.908-.66-28.078.925-38.534a20.41,20.41,0,0,1,1.584-5.942,3.994,3.994,0,0,1,2.509-2.411,4.554,4.554,0,0,1,3.1.77c2.113,1.189,4.621,3.613,7.79,7.545,2.773,3.442,5.084,7.32,7.791,10.842,4.225,5.513,8.648,11.1,13.6,15.523A.737.737,0,0,0,95.18,73.9a.71.71,0,0,0-.065-1.076c-4.886-4.36-9.243-9.875-13.4-15.31-2.641-3.531-5.017-7.418-7.79-10.87-3.3-4.138-6.008-6.665-8.252-7.917a5.853,5.853,0,0,0-4.16-.937,4.822,4.822,0,0,0-3.036,2.291,19.565,19.565,0,0,0-2.245,7.328c-1.584,10.493-.264,27.725-.924,38.672a33.472,33.472,0,0,1-.925,6.8,4.511,4.511,0,0,1-1.122,2.275,9.136,9.136,0,0,1-7.526,2.638,41.894,41.894,0,0,1-9.243-2.181c-4.951-1.553-10.035-2.979-14.458-1.344s-8.384,6.339-10.893,17.289a.72.72,0,0,0,.528.914A.765.765,0,0,0,12.591,111.9Z" transform="translate(-5.049 -30.228)" fill="#4b8bc2" fill-rule="evenodd"/>
      <path id="Path_9949" data-name="Path 9949" d="M5.348,156.141a3.042,3.042,0,0,1-.264-.635c-.4-1.163-.792-2.968-.924-3.5a51.871,51.871,0,0,1-2.641-14.946.747.747,0,0,0-.727-.761.764.764,0,0,0-.792.763,57.256,57.256,0,0,0,2.641,15.38c.2.537.594,2.369.99,3.551a5.036,5.036,0,0,0,.4,1,1.374,1.374,0,0,0,.4.384,1.687,1.687,0,0,0,1.057.288A3.841,3.841,0,0,0,7,157.239a24.882,24.882,0,0,0,3.5-2.165,7.4,7.4,0,0,1,1.453-.889c2.839-.941,5.941.062,8.318,3.318a.756.756,0,0,0,1.057.163.831.831,0,0,0,.2-1.066c-2.9-3.906-6.6-4.992-10.035-3.862-.858.273-2.707,1.776-4.357,2.735a7.807,7.807,0,0,1-1.387.611,1.32,1.32,0,0,1-.33.058A.221.221,0,0,1,5.348,156.141Z" transform="translate(0 -75.061)" fill="#48769e" fill-rule="evenodd"/>
    </g>
  </g>
</svg>
