<svg xmlns="http://www.w3.org/2000/svg" width="86.752" height="79.224" viewBox="0 0 86.752 79.224">
  <g id="Group_57420" data-name="Group 57420" transform="translate(1.406 1.351)">
    <path id="Path_7066" data-name="Path 7066" d="M0,44.035S12.866,5.772,33.771,15.692,60.155,17.006,67.391,0" transform="translate(27.712 0) rotate(39)" fill="none" stroke="#707070" stroke-width="3" stroke-dasharray="5"/>
    <path id="Path_7069" data-name="Path 7069" d="M7.934,10.68a2.363,2.363,0,0,1-1.9-1.022L.205,1.689A1.062,1.062,0,0,1,1.919.435L7.751,8.4c.183.249.184.249.367,0L13.888.442a1.062,1.062,0,0,1,1.72,1.246L9.838,9.65a2.364,2.364,0,0,1-1.9,1.032.009.009,0,0,0-.006,0Z" transform="translate(76.19 53.274) rotate(-121)" fill="#767676"/>
  </g>
</svg>
