
<svg xmlns="http://www.w3.org/2000/svg" width="100.984" height="108.263" viewBox="0 0 100.984 108.263">
  <g id="Group_57422" data-name="Group 57422" transform="translate(139.99 71.709) rotate(147)">
    <path id="Path_7066" data-name="Path 7066" d="M0,95.152S68.667,7.859,54.572,72.447C33.534,98.166,6.523,41.285,18.054,18.894,57.247-11.218,64.592,13.138,75.7,4.547,77.114,3.46,80.782,3.115,82.6,0" transform="translate(59.881 0) rotate(39)" fill="none" stroke="#707070" stroke-width="3" stroke-dasharray="5"/>
    <path id="Path_7069" data-name="Path 7069" d="M13.05,17.566a3.887,3.887,0,0,1-3.121-1.681L.337,2.778A1.747,1.747,0,0,1,3.157.715l9.592,13.108c.3.41.3.41.6,0l9.49-13.1a1.747,1.747,0,0,1,2.83,2.05l-9.49,13.1a3.888,3.888,0,0,1-3.122,1.7.015.015,0,0,0-.01,0Z" transform="matrix(0.208, -0.978, 0.978, 0.208, 106.906, 62.295)" fill="#767676"/>
  </g>
</svg>
