<svg xmlns="http://www.w3.org/2000/svg" width="700.882" height="700.874" viewBox="0 0 700.882 700.874">
  <g id="abstract-2" transform="translate(367.754 771.453) rotate(-131)" opacity="0.03">
    <path id="Path_9169" data-name="Path 9169" d="M364.5,6.1V-56C193-56,54,83,54,254.474c0,171.5,139,310.538,310.5,310.538v-62.1c-137.2,0-248.4-111.223-248.4-248.425C116.1,117.327,227.3,6.1,364.5,6.1Z" transform="translate(88.199)" fill="#24659d"/>
    <path id="Path_9170" data-name="Path 9170" d="M276.3-20C173.387-20,90,63.387,90,166.274,90,269.188,173.387,352.6,276.3,352.6l60.512-131.04,125.79-55.29C462.6,63.387,379.223-20,276.3-20Z" transform="translate(176.398 88.199)" fill="#24659d"/>
  </g>
</svg>
