<svg xmlns="http://www.w3.org/2000/svg" width="177.5" height="157.842" viewBox="0 0 177.5 157.842">
  <g id="Group_57388" data-name="Group 57388" transform="translate(-99.259 -2174.958)">
    <path id="path3050" d="M74.018,168.412a17.346,17.346,0,0,0-7.989-2.492c-10.4-.091-28.934-10.982-36.417-21.4-6.65-9.26-7.67-12.749-7.635-26.1.089-33.148,14.835-59.044,48.855-85.8A12.158,12.158,0,0,1,77.2,30.282a8.494,8.494,0,0,0,5.24-1.849,7.65,7.65,0,0,1,3.493-2.056A64.969,64.969,0,0,0,94.518,23.3c10.46-4.333,23.553-3.473,35.554,2.337,12.85,6.22,17.721,12.9,17.4,23.844-.3,10.023-4.417,13.38-4.417,3.6,0-4.687-2.559-9.528-7.569-14.322-6.684-6.394-9.235-7.211-21.807-6.98a64.9,64.9,0,0,0-27.563,6.576C72.953,44.587,56.8,57.266,56.717,61.424c-.023,1.177-2.741,4.7-6.038,7.826C37.4,81.84,30.208,118.261,38.021,133.337c4.475,8.634,16.859,19.611,20.686,18.336,1.641-.547,2.984.273,2.984,1.822s.85,2.291,1.889,1.649,7.418-.085,14.176,1.239c19.807,3.879,49.914,2.6,76.39-3.243,13.56-2.993,25.21-6.229,25.888-7.19s4.006-2.14,7.4-2.618,6.935-1.948,7.879-3.265a2.294,2.294,0,0,1,3.551-.558c4.995,4.995-21.1,17.066-54.576,25.246-23.745,5.8-63.886,7.892-70.265,3.658Z" transform="translate(77.283 2154.392)" fill="#eaeef6"/>
    <path id="path3050-2" data-name="path3050" d="M74.018,168.412a17.346,17.346,0,0,0-7.989-2.492c-10.4-.091-28.934-10.982-36.417-21.4-6.65-9.26-7.67-12.749-7.635-26.1.089-33.148,14.835-59.044,48.855-85.8A12.158,12.158,0,0,1,77.2,30.282a8.494,8.494,0,0,0,5.24-1.849,7.65,7.65,0,0,1,3.493-2.056A64.969,64.969,0,0,0,94.518,23.3c10.46-4.333,23.553-3.473,35.554,2.337,12.85,6.22,17.721,12.9,17.4,23.844-.3,10.023-4.417,13.38-4.417,3.6,0-4.687-2.559-9.528-7.569-14.322-6.684-6.394-9.235-7.211-21.807-6.98a64.9,64.9,0,0,0-27.563,6.576C72.953,44.587,56.8,57.266,56.717,61.424c-.023,1.177-2.741,4.7-6.038,7.826C37.4,81.84,30.208,118.261,38.021,133.337c4.475,8.634,16.859,19.611,20.686,18.336,1.641-.547,2.984.273,2.984,1.822s.85,2.291,1.889,1.649,7.418-.085,14.176,1.239c19.807,3.879,49.914,2.6,76.39-3.243,13.56-2.993,25.21-6.229,25.888-7.19s4.006-2.14,7.4-2.618,6.935-1.948,7.879-3.265a2.294,2.294,0,0,1,3.551-.558c4.995,4.995-21.1,17.066-54.576,25.246-23.745,5.8-63.886,7.892-70.265,3.658Z" transform="translate(77.283 2162.152)" fill="#eaeef6"/>
  </g>
</svg>
