<svg xmlns="http://www.w3.org/2000/svg" width="72.744" height="72.756" viewBox="0 0 72.744 72.756">
  <g id="undraw_smiley-face" transform="translate(0)">
    <path id="Path_7088" data-name="Path 7088" d="M36.6,0A37.363,37.363,0,0,0,2.341,23.378c-5.371,13.675-1.266,30.814,9.906,40.4C23.6,73.519,40.6,75.736,53.8,68.439a37.116,37.116,0,0,0,18.61-37.056A36.018,36.018,0,0,0,60.011,8.848,36.37,36.37,0,0,0,34.81.486c-4.287.262-4.317,6.969,0,6.706A29.413,29.413,0,0,1,64.817,27.948,30.13,30.13,0,0,1,54.1,60.26c-9.763,7.479-23.46,7.56-33.8,1.173C9.875,54.988,4.767,41.787,7.372,29.9,10.307,16.5,22.963,6.714,36.6,6.706,40.915,6.7,40.922,0,36.6,0Z" transform="translate(0 0)" fill="#fff"/>
    <path id="Path_7089" data-name="Path 7089" d="M14.463,37.7A24.929,24.929,0,0,0,31.5,45.016,23.734,23.734,0,0,0,49.163,37.7c3.01-3.1-1.727-7.843-4.742-4.742A17.065,17.065,0,0,1,31.5,38.31a18.026,18.026,0,0,1-12.3-5.355c-3.027-3.085-7.768,1.658-4.742,4.742h0Z" transform="translate(4.602 10.897)" fill="#fff"/>
    <path id="Path_7090" data-name="Path 7090" d="M19.542,16.441A3.916,3.916,0,0,0,17.8,17.452a3.2,3.2,0,0,0-.6.781,4.861,4.861,0,0,0-.206.469,4.508,4.508,0,0,0-.205.5,3.728,3.728,0,0,0-.144,1.047c0,.036,0,.069.005.1a5.685,5.685,0,0,0,.129.943,5.135,5.135,0,0,0,.385.932,4,4,0,0,0,.636.846,3.382,3.382,0,0,0,1.013.757,5.33,5.33,0,0,0,.942.383,5.3,5.3,0,0,0,.533.077,5.35,5.35,0,0,0,.575.071,4.1,4.1,0,0,0,1.378-.2,5.556,5.556,0,0,0,1.241-.561,4.923,4.923,0,0,0,1.789-1.875,4.294,4.294,0,0,0,.524-2.052,4.6,4.6,0,0,0-.065-.508c-.019-.144-.036-.368-.077-.538a3.793,3.793,0,0,0-.414-1c-.021-.036-.043-.068-.065-.1a6.761,6.761,0,0,0-.562-.726,5.5,5.5,0,0,0-.81-.653,1.436,1.436,0,0,0-.18-.119c-.153-.081-.336-.147-.484-.209a5.182,5.182,0,0,0-.529-.215,5.179,5.179,0,0,0-2.8.038c-.084.024-.165.054-.246.086a9.528,9.528,0,0,0-.977.421,1.885,1.885,0,0,0-.193.117,8.154,8.154,0,0,0-.855.664,1.834,1.834,0,0,0-.175.19,6.646,6.646,0,0,0-.615.814,4.121,4.121,0,0,0-.5,1.256,8.312,8.312,0,0,0-.128.955c0,.043-.007.085-.006.128a6.031,6.031,0,0,0,.134,1.051,3.026,3.026,0,0,0,.226.61,3.878,3.878,0,0,0,.275.6,3.961,3.961,0,0,0,1.092,1.185,4.648,4.648,0,0,0,1.484.8,3.6,3.6,0,0,0,.837.168,3.8,3.8,0,0,0,.974.057,7.14,7.14,0,0,0,1.366-.23,13.066,13.066,0,0,0,1.331-.544,5.286,5.286,0,0,0,.906-.485,7.291,7.291,0,0,0,.976-.771,5,5,0,0,0,.4-.489,3.734,3.734,0,0,0,.383-.527,4.779,4.779,0,0,0,.569-2.064,3.359,3.359,0,0,0-.19-1.344,4.786,4.786,0,0,0-1.085-1.816,4.13,4.13,0,0,0-1.06-.812,4.588,4.588,0,0,0-1.227-.489,8.2,8.2,0,0,0-1.132-.148,2.261,2.261,0,0,0-.342.01,8.325,8.325,0,0,0-1.492.244c-.236.069-.466.156-.7.244a2.525,2.525,0,0,0-1.14.6,2.534,2.534,0,0,0-.864.941,2.5,2.5,0,0,0-.4,1.247,2.54,2.54,0,0,0,.06,1.337,3.391,3.391,0,0,0,1.541,2l.8.338a3.376,3.376,0,0,0,1.783,0,6.017,6.017,0,0,1,1.182-.354l-.891.12a2.509,2.509,0,0,1,.608-.011l-.891-.12a1.724,1.724,0,0,1,.406.113l-.8-.338a1.832,1.832,0,0,1,.314.182l-.679-.524a1.6,1.6,0,0,1,.254.248l-.524-.679a1.352,1.352,0,0,1,.146.247l-.338-.8a1.244,1.244,0,0,1,.063.22l-.12-.891a1.14,1.14,0,0,1,0,.289l.12-.891a1.3,1.3,0,0,1-.059.215l.338-.8a1.4,1.4,0,0,1-.167.288l.524-.679a2.089,2.089,0,0,1-.333.325l.679-.524a5.371,5.371,0,0,1-1.142.617l.8-.338a3.741,3.741,0,0,1-.865.256l.891-.12a2.1,2.1,0,0,1-.529,0l.891.12a1.882,1.882,0,0,1-.391-.108l.8.338a1.632,1.632,0,0,1-.344-.2l.679.524a1.441,1.441,0,0,1-.2-.2l.524.679a1.253,1.253,0,0,1-.138-.242l.338.8a1.285,1.285,0,0,1-.062-.241l.12.891a1.368,1.368,0,0,1,.006-.32l-.12.891a1.577,1.577,0,0,1,.092-.31l-.338.8a1.666,1.666,0,0,1,.165-.28l-.524.679a1.808,1.808,0,0,1,.273-.273l-.679.524a2.184,2.184,0,0,1,.448-.257l-.8.338a2.72,2.72,0,0,1,.594-.161l-.891.12a2.1,2.1,0,0,1,.451-.008l-.891-.12a1.55,1.55,0,0,1,.349.09l-.8-.338a1.337,1.337,0,0,1,.263.159l-.679-.524a1.3,1.3,0,0,1,.169.176l-.524-.679a1.264,1.264,0,0,1,.093.156l-.338-.8a1.009,1.009,0,0,1,.066.235l-.12-.891a1.16,1.16,0,0,1,0,.185l.12-.891a1.2,1.2,0,0,1-.062.237l.338-.8a1.5,1.5,0,0,1-.157.274l.524-.679a1.937,1.937,0,0,1-.323.323l.679-.524a2.323,2.323,0,0,1-.479.273l.8-.338a1.906,1.906,0,0,1-.342.1l.891-.12a1.4,1.4,0,0,1-.341,0l.891.12a1.293,1.293,0,0,1-.228-.063l.8.338a1.24,1.24,0,0,1-.205-.115l.679.524a1.067,1.067,0,0,1-.165-.162l.524.679a1.027,1.027,0,0,1-.087-.149l.338.8a.85.85,0,0,1-.044-.157l.12.891a.911.911,0,0,1,0-.158l-.12.891a.879.879,0,0,1,.057-.2l-.338.8a.925.925,0,0,1,.081-.133l-.524.679a.8.8,0,0,1,.11-.106l-.679.524a.49.49,0,0,1,.088-.05l-.8.338a.464.464,0,0,1,.1-.031,2.525,2.525,0,0,0,1.14-.6,2.534,2.534,0,0,0,.864-.941,2.5,2.5,0,0,0,.4-1.247,2.54,2.54,0,0,0-.06-1.337,3.391,3.391,0,0,0-1.541-2,3.543,3.543,0,0,0-2.584-.338h0Z" transform="translate(5.493 5.125)" fill="#fff"/>
    <path id="Path_7091" data-name="Path 7091" d="M33.636,16.441a3.916,3.916,0,0,0-1.743,1.011,3.2,3.2,0,0,0-.6.781,4.86,4.86,0,0,0-.206.469,4.509,4.509,0,0,0-.205.5,3.729,3.729,0,0,0-.144,1.047c0,.036,0,.069.005.1a5.685,5.685,0,0,0,.129.943,5.135,5.135,0,0,0,.385.932,4,4,0,0,0,.636.846,3.382,3.382,0,0,0,1.013.757,5.33,5.33,0,0,0,.942.383,5.3,5.3,0,0,0,.533.077,5.35,5.35,0,0,0,.575.071,4.1,4.1,0,0,0,1.378-.2,5.556,5.556,0,0,0,1.241-.561,4.923,4.923,0,0,0,1.789-1.875,4.294,4.294,0,0,0,.524-2.052,4.606,4.606,0,0,0-.065-.508c-.019-.144-.036-.368-.077-.538a3.793,3.793,0,0,0-.414-1c-.021-.036-.043-.068-.065-.1A6.761,6.761,0,0,0,38.7,16.8a5.5,5.5,0,0,0-.81-.653,1.436,1.436,0,0,0-.18-.119c-.153-.081-.336-.147-.484-.209a4.292,4.292,0,0,0-3.332-.176c-.084.024-.165.054-.246.086a9.527,9.527,0,0,0-.977.421,1.885,1.885,0,0,0-.193.117,8.154,8.154,0,0,0-.855.664,1.834,1.834,0,0,0-.175.19,6.647,6.647,0,0,0-.615.814,4.121,4.121,0,0,0-.5,1.256,8.312,8.312,0,0,0-.128.955c0,.043-.007.085-.006.128a6.031,6.031,0,0,0,.134,1.051,3.026,3.026,0,0,0,.226.61,3.878,3.878,0,0,0,.275.6,3.961,3.961,0,0,0,1.092,1.185,4.648,4.648,0,0,0,1.484.8,3.6,3.6,0,0,0,.837.168,3.8,3.8,0,0,0,.974.057,7.14,7.14,0,0,0,1.366-.23,13.066,13.066,0,0,0,1.331-.544,5.286,5.286,0,0,0,.906-.485,7.291,7.291,0,0,0,.976-.771,5,5,0,0,0,.4-.489,3.733,3.733,0,0,0,.383-.527,4.779,4.779,0,0,0,.569-2.064,3.359,3.359,0,0,0-.19-1.344,4.786,4.786,0,0,0-1.085-1.816,4.13,4.13,0,0,0-1.06-.812,4.588,4.588,0,0,0-1.227-.489,8.2,8.2,0,0,0-1.132-.148,2.261,2.261,0,0,0-.342.01,8.325,8.325,0,0,0-1.492.244c-.236.069-.466.156-.7.244a2.525,2.525,0,0,0-1.14.6,2.534,2.534,0,0,0-.864.941,2.5,2.5,0,0,0-.4,1.247,2.54,2.54,0,0,0,.06,1.337,3.391,3.391,0,0,0,1.541,2l.8.338a3.376,3.376,0,0,0,1.783,0,6.017,6.017,0,0,1,1.182-.354l-.891.12a2.509,2.509,0,0,1,.608-.011l-.891-.12a1.724,1.724,0,0,1,.406.113l-.8-.338a1.833,1.833,0,0,1,.314.182l-.679-.524a1.6,1.6,0,0,1,.254.248l-.524-.679a1.351,1.351,0,0,1,.146.247l-.338-.8a1.243,1.243,0,0,1,.063.22l-.12-.891a1.14,1.14,0,0,1,0,.289l.12-.891a1.3,1.3,0,0,1-.058.215l.338-.8a1.4,1.4,0,0,1-.167.288l.524-.679a2.089,2.089,0,0,1-.333.325l.679-.524a5.371,5.371,0,0,1-1.142.617l.8-.338a3.741,3.741,0,0,1-.865.256l.891-.12a2.1,2.1,0,0,1-.529,0l.891.12a1.882,1.882,0,0,1-.391-.108l.8.338a1.632,1.632,0,0,1-.344-.2l.679.524a1.441,1.441,0,0,1-.2-.2l.524.679a1.253,1.253,0,0,1-.138-.242l.338.8a1.285,1.285,0,0,1-.062-.241l.12.891a1.368,1.368,0,0,1,.006-.32l-.12.891a1.578,1.578,0,0,1,.092-.31l-.338.8a1.667,1.667,0,0,1,.165-.28l-.524.679a1.808,1.808,0,0,1,.273-.273l-.679.524a2.184,2.184,0,0,1,.448-.257l-.8.338a2.72,2.72,0,0,1,.594-.161l-.891.12a2.1,2.1,0,0,1,.451-.008l-.891-.12a1.55,1.55,0,0,1,.349.09l-.8-.338a1.337,1.337,0,0,1,.263.159l-.679-.524a1.3,1.3,0,0,1,.169.176l-.524-.679a1.266,1.266,0,0,1,.093.156l-.338-.8a1.01,1.01,0,0,1,.066.235l-.12-.891a1.161,1.161,0,0,1,0,.185l.12-.891a1.2,1.2,0,0,1-.062.237l.338-.8a1.5,1.5,0,0,1-.157.274l.524-.679a1.937,1.937,0,0,1-.323.323l.679-.524a2.323,2.323,0,0,1-.479.273l.8-.338a1.906,1.906,0,0,1-.342.1l.891-.12a1.4,1.4,0,0,1-.341,0l.891.12a1.293,1.293,0,0,1-.228-.063l.8.338a1.24,1.24,0,0,1-.205-.115l.679.524a1.066,1.066,0,0,1-.165-.162l.524.679a1.027,1.027,0,0,1-.087-.149l.338.8a.851.851,0,0,1-.044-.157l.12.891a.91.91,0,0,1,0-.158l-.12.891a.878.878,0,0,1,.057-.2l-.338.8a.926.926,0,0,1,.081-.133l-.524.679a.8.8,0,0,1,.11-.106l-.679.524a.49.49,0,0,1,.088-.05l-.8.338a.464.464,0,0,1,.1-.031,2.525,2.525,0,0,0,1.14-.6,2.534,2.534,0,0,0,.864-.941,2.5,2.5,0,0,0,.4-1.247,2.54,2.54,0,0,0-.06-1.337,3.391,3.391,0,0,0-1.541-2,3.543,3.543,0,0,0-2.584-.338h0Z" transform="translate(10.301 5.125)" fill="#fff"/>
  </g>
</svg>
