<svg xmlns="http://www.w3.org/2000/svg" xmlns:xlink="http://www.w3.org/1999/xlink" width="18.81" height="18.81" viewBox="0 0 18.81 18.81">
  <defs>
    <clipPath id="clip-path">
      <circle id="Ellipse_598" data-name="Ellipse 598" cx="9.405" cy="9.405" r="9.405" transform="translate(-0.145)" fill="#fff" stroke="#707070" stroke-width="1"/>
    </clipPath>
  </defs>
  <g id="Mask_Group_1" data-name="Mask Group 1" transform="translate(0.145)" clip-path="url(#clip-path)">
    <g id="saudi-arabia" transform="translate(-0.145)">
      <rect id="Rectangle_17190" data-name="Rectangle 17190" width="18.81" height="18.81" fill="#73af00"/>
      <g id="Group_57062" data-name="Group 57062" transform="translate(2.699 5.141)">
        <path id="Path_9125" data-name="Path 9125" d="M4.83,11.16c.038.245.186.321.315.311a.316.316,0,0,0,.285-.3v-.839a.076.076,0,1,1,.153,0v.843A.305.305,0,0,0,6,11.461l.076-.03c.007.7-.036,1.324-.037,1.335a.153.153,0,0,0,.141.163h.011a.153.153,0,0,0,.152-.142c0-.05.051-.728.036-1.479l.046-.018a.153.153,0,0,1,.125.005.436.436,0,0,0,.5-.082l.027-.027a.456.456,0,0,0,.111-.469l-.13-.39a.153.153,0,0,0,.113-.282L6.87,9.893a.153.153,0,0,0-.213.185l.246.737a.152.152,0,0,1-.037.156L6.839,11a.131.131,0,0,1-.151.024.456.456,0,0,0-.317-.032,5.263,5.263,0,0,0-.187-1.315.153.153,0,0,0-.29.1A5.244,5.244,0,0,1,6.069,11.1l-.183.073v-.843a.382.382,0,1,0-.763,0v.739L4.968,10.3a.153.153,0,1,0-.3.061Z" transform="translate(-4.623 -9.257)" fill="#f5f5f5"/>
        <path id="Path_9126" data-name="Path 9126" d="M5.354,9.762a.153.153,0,0,0,.153-.153V9.457a.153.153,0,1,0-.305,0V9.61A.153.153,0,0,0,5.354,9.762Z" transform="translate(-4.853 -9.142)" fill="#f5f5f5"/>
        <path id="Path_9127" data-name="Path 9127" d="M8.031,9.609h.153a.153.153,0,1,0,0-.305H8.031a.153.153,0,1,0,0,.305Z" transform="translate(-6.005 -9.142)" fill="#f5f5f5"/>
        <path id="Path_9128" data-name="Path 9128" d="M5.771,13.342l-.763.458a.153.153,0,0,0,.157.262l.763-.458a.153.153,0,1,0-.157-.262Z" transform="translate(-4.738 -10.869)" fill="#f5f5f5"/>
        <path id="Path_9129" data-name="Path 9129" d="M8.171,12l0,0a.348.348,0,0,0,.07.143.3.3,0,0,0,.26.1.421.421,0,0,0,.317-.167.276.276,0,0,0,.032.019.289.289,0,0,0,.269-.009.579.579,0,0,0,.273-.537.156.156,0,0,0-.159-.145.153.153,0,0,0-.146.158s0,.183-.107.25a.372.372,0,0,1-.048-.129.153.153,0,0,0-.3.025c0,.022,0,.218-.156.234a.373.373,0,0,1,0-.2.153.153,0,0,0-.234-.162l-.085.058c-.04-.885-.134-1.916-.135-1.93a.153.153,0,0,0-.3.028c0,.014.109,1.207.142,2.119l-.023.023a.393.393,0,0,0-.334-.263.557.557,0,0,0-.538.34.361.361,0,0,0,.117.455.509.509,0,0,0,.455.021,1.276,1.276,0,0,1-.248.471.64.64,0,0,1-.488.248.4.4,0,0,1-.3-.126.872.872,0,0,1-.161-.546.153.153,0,0,0-.144-.16.15.15,0,0,0-.161.144,1.171,1.171,0,0,0,.24.767.7.7,0,0,0,.511.227h.031a.93.93,0,0,0,.7-.355,1.579,1.579,0,0,0,.349-.782,1.73,1.73,0,0,1-.732,1.37.762.762,0,0,1-.764.056.655.655,0,0,1-.336-.645.153.153,0,1,0-.3-.038.958.958,0,0,0,.5.957,1.037,1.037,0,0,0,.462.11,1.129,1.129,0,0,0,.6-.18,2.029,2.029,0,0,0,.877-1.631C8.176,12.221,8.174,12.113,8.171,12Zm-.92.157c-.027-.018-.006-.076,0-.087a.259.259,0,0,1,.213-.15h.012c.02,0,.071.007.094.122,0,.012,0,.025.006.038C7.4,12.18,7.29,12.183,7.251,12.158Z" transform="translate(-5.081 -9.257)" fill="#f5f5f5"/>
        <path id="Path_9130" data-name="Path 9130" d="M5.168,16.095a.153.153,0,0,0-.209.054.318.318,0,0,1-.026.036l0-.013a1.027,1.027,0,0,1,0-.518.153.153,0,0,0-.295-.079,1.314,1.314,0,0,0,0,.7c.07.187.178.234.256.24h.021a.4.4,0,0,0,.3-.218A.152.152,0,0,0,5.168,16.095Z" transform="translate(-4.591 -11.79)" fill="#f5f5f5"/>
        <path id="Path_9131" data-name="Path 9131" d="M10.43,10.678a.151.151,0,0,0,.094-.033l.769-.6a.146.146,0,0,0,.025-.03.382.382,0,1,0-.439-.034l-.545.428a.153.153,0,0,0,.094.273Zm.693-1.068a.076.076,0,1,1-.076.076A.076.076,0,0,1,11.123,9.609Z" transform="translate(-7.036 -9.142)" fill="#f5f5f5"/>
        <path id="Path_9132" data-name="Path 9132" d="M11.274,11.454a.152.152,0,0,0-.193.1.467.467,0,0,0,.059.45.308.308,0,0,0,.228.087.67.67,0,0,0,.211-.039.153.153,0,1,0-.1-.289.532.532,0,0,1-.125.027.292.292,0,0,1,.013-.139A.152.152,0,0,0,11.274,11.454Z" transform="translate(-7.368 -10.063)" fill="#f5f5f5"/>
        <path id="Path_9133" data-name="Path 9133" d="M14.426,9.9a.153.153,0,0,0,.189-.1l.089-.305a.153.153,0,0,0-.293-.086l-.089.305A.153.153,0,0,0,14.426,9.9Z" transform="translate(-8.773 -9.137)" fill="#f5f5f5"/>
        <path id="Path_9134" data-name="Path 9134" d="M12.814,9.762a.153.153,0,0,0,.154-.264c-.031-.018-.027-.068-.025-.078a.12.12,0,0,1,.07-.1.153.153,0,0,0-.091-.292.419.419,0,0,0-.283.359A.376.376,0,0,0,12.814,9.762Z" transform="translate(-8.05 -9.02)" fill="#f5f5f5"/>
        <path id="Path_9135" data-name="Path 9135" d="M10.709,14.659a.153.153,0,0,0-.029.3.286.286,0,0,1,.029.155.153.153,0,1,0,.305,0C11.014,14.665,10.721,14.659,10.709,14.659Z" transform="translate(-7.156 -11.445)" fill="#f5f5f5"/>
        <path id="Path_9136" data-name="Path 9136" d="M15.14,13.221a.356.356,0,0,0,.057,0,.522.522,0,0,0,.361-.18.153.153,0,0,0-.216-.216c-.091.091-.14.093-.153.09-.029,0-.056-.042-.061-.053a.153.153,0,0,0-.272.138A.413.413,0,0,0,15.14,13.221Z" transform="translate(-8.998 -10.639)" fill="#f5f5f5"/>
        <path id="Path_9137" data-name="Path 9137" d="M19.692,11.586l0-.007a.153.153,0,0,0-.289.1.342.342,0,0,0,.248.238l.034,0a.374.374,0,0,0,.3-.2.153.153,0,1,0-.254-.169A.458.458,0,0,1,19.692,11.586Z" transform="translate(-10.955 -10.076)" fill="#f5f5f5"/>
        <path id="Path_9138" data-name="Path 9138" d="M16.283,13.54c0-.651-.029-1.261-.068-1.8a7.728,7.728,0,0,1,.536,1.087.153.153,0,0,0,.286-.107,10.1,10.1,0,0,0-.883-1.673c-.083-.822-.177-1.344-.179-1.353a.153.153,0,0,0-.3.055c0,.007.049.275.107.728-.117-.174-.226-.331-.318-.46l.007,0a.153.153,0,1,0,.1-.289l-.458-.153a.151.151,0,0,0-.194.1.333.333,0,0,0-.319-.076.26.26,0,0,0-.146.272,1.381,1.381,0,0,0,.105.432c.09.255.146.442.051.531a.167.167,0,0,1-.156.055c-.094-.024-.187-.149-.249-.335a.146.146,0,0,0-.012-.021,2.6,2.6,0,0,0-.047-.844.153.153,0,0,0-.3.06,1.453,1.453,0,0,1-.08,1.088.274.274,0,0,1-.228.1.088.088,0,0,1-.073-.034,1.471,1.471,0,0,1-.081-.86.153.153,0,0,0-.151-.174c-.263,0-.362.3-.45.562-.039.116-.11.331-.16.354-.092,0-.152-.271-.153-.458a.153.153,0,0,0-.153-.152h0a.152.152,0,0,0-.152.152c0,.352.12.763.458.763.252,0,.354-.274.439-.529a.956.956,0,0,0,.173.542.391.391,0,0,0,.3.139A.581.581,0,0,0,14,11.036a.711.711,0,0,0,.057-.084.569.569,0,0,0,.32.24.44.44,0,0,0,.108.014.484.484,0,0,0,.332-.142A.448.448,0,0,0,14.868,11a.412.412,0,0,0,.113.017.618.618,0,0,0,.316-.1.153.153,0,0,0-.164-.257.324.324,0,0,1-.173.045,1.575,1.575,0,0,0-.116-.5,2.113,2.113,0,0,1-.079-.255l.036.032a.152.152,0,0,0,.216,0,.147.147,0,0,0,.022-.033c.158.218.484.676.818,1.2.064.649.12,1.477.12,2.385a.153.153,0,0,0,.305,0Z" transform="translate(-7.847 -9.257)" fill="#f5f5f5"/>
        <path id="Path_9139" data-name="Path 9139" d="M19.545,10.183a.153.153,0,1,0,.305,0,1.557,1.557,0,0,0-.169-.526.153.153,0,0,0-.273.137A1.355,1.355,0,0,1,19.545,10.183Z" transform="translate(-10.955 -9.257)" fill="#f5f5f5"/>
        <path id="Path_9140" data-name="Path 9140" d="M17.814,16.32a.152.152,0,0,0-.2.067.437.437,0,0,1-.063.091.853.853,0,0,1,.04-.282.153.153,0,0,0-.254-.153l-.305.305a.153.153,0,0,0,.216.216l.008-.008a.316.316,0,0,0,.082.16.279.279,0,0,0,.2.087.265.265,0,0,0,.042,0,.5.5,0,0,0,.309-.276A.152.152,0,0,0,17.814,16.32Z" transform="translate(-9.919 -12.02)" fill="#f5f5f5"/>
        <path id="Path_9141" data-name="Path 9141" d="M14.531,13.6H13.456q.014-.057.029-.109c.429-.089.684-.228.759-.412a.341.341,0,0,0-.057-.343.378.378,0,0,0-.386-.165c-.217.044-.41.278-.549.652a1.754,1.754,0,0,0-.881.381,2.367,2.367,0,0,0-.316-1.015.153.153,0,1,0-.254.169,2.2,2.2,0,0,1,.28,1.136,1.208,1.208,0,0,1-.916,1.221c-.171,0-.246-.2-.279-.376a1.753,1.753,0,0,0,.733-.808,1.214,1.214,0,0,0-.1-.827l-.011-.027.01.009a.153.153,0,1,0,.216-.216c-.089-.089-.262-.23-.42-.164a.26.26,0,0,0-.146.272.65.65,0,0,0,.071.245.923.923,0,0,1,.086.633,1.291,1.291,0,0,1-.5.551.15.15,0,0,0-.115-.056h0a.152.152,0,0,0-.152.152c0,.027,0,.057,0,.087a8.03,8.03,0,0,1-.982.537.153.153,0,0,0,.063.292A.151.151,0,0,0,9.7,15.4a8.784,8.784,0,0,0,.912-.488.594.594,0,0,0,.552.5,1.3,1.3,0,0,0,1.021-.746.888.888,0,0,0,.1.146,1.72,1.72,0,0,0,1.166.448.153.153,0,0,0,.011-.3.327.327,0,0,1-.19-.093.261.261,0,0,1-.05-.2c.016-.188.622-.329,1.157-.337a.153.153,0,0,0,.142-.1l.153-.429a.153.153,0,0,0-.144-.2Zm-.67-.729.012,0c.015,0,.038.007.068.049.006.008.024.034.02.046-.018.043-.123.115-.342.179C13.715,12.95,13.81,12.877,13.861,12.866Zm-.922,2.006a.934.934,0,0,1-.422-.257.649.649,0,0,1-.135-.537.451.451,0,0,1,.032-.065c.215-.02.789.065.829.229a.513.513,0,0,0-.323.4A.646.646,0,0,0,12.94,14.873Z" transform="translate(-6.695 -10.524)" fill="#f5f5f5"/>
        <path id="Path_9142" data-name="Path 9142" d="M20.338,10.134l-.153-.458a.153.153,0,0,0-.3.063c.105,1.053.3,3.107.3,3.342,0,.212-.376.628-.984.932a.153.153,0,0,0,.137.273c.555-.278,1.153-.773,1.153-1.2,0-.225-.156-1.848-.245-2.759A.153.153,0,0,0,20.338,10.134Z" transform="translate(-10.84 -9.257)" fill="#f5f5f5"/>
        <path id="Path_9143" data-name="Path 9143" d="M23.108,12.409a.153.153,0,0,0,.256-.146.77.77,0,0,1-.022-.3.155.155,0,0,0,.159-.131.153.153,0,0,0-.129-.173.276.276,0,0,0-.251.085.349.349,0,0,0-.077.164l-.177-.177a.153.153,0,0,0-.216.216Z" transform="translate(-12.337 -10.155)" fill="#f5f5f5"/>
        <path id="Path_9144" data-name="Path 9144" d="M23.609,13.232l-.572.41a.153.153,0,1,0,.178.248l.572-.41a.153.153,0,1,0-.178-.248Z" transform="translate(-12.495 -10.819)" fill="#f5f5f5"/>
        <path id="Path_9145" data-name="Path 9145" d="M23.976,14.216a.153.153,0,0,0,.013.2.423.423,0,0,1,.031.22.153.153,0,0,0,.147.158h.006a.153.153,0,0,0,.152-.147c.011-.312-.091-.425-.135-.46A.152.152,0,0,0,23.976,14.216Z" transform="translate(-12.913 -11.229)" fill="#f5f5f5"/>
        <path id="Path_9146" data-name="Path 9146" d="M24.272,13.368a.153.153,0,0,0,.153-.153c0-.225-.012-.477-.03-.738a5.572,5.572,0,0,1,.358.665.152.152,0,0,0,.14.093.15.15,0,0,0,.06-.012.153.153,0,0,0,.08-.2,8.4,8.4,0,0,0-.7-1.2c-.06-.56-.138-1.109-.2-1.5a.148.148,0,0,0,.1-.024.151.151,0,0,0,.068-.138.15.15,0,0,0,.017.044.555.555,0,0,1,.056.374.153.153,0,0,0,.119.18.158.158,0,0,0,.031,0,.153.153,0,0,0,.149-.122.865.865,0,0,0-.1-.6.153.153,0,0,0-.211-.047.151.151,0,0,0-.068.138.149.149,0,0,0-.017-.044l-.258-.4a.153.153,0,0,0-.279.109c0,.012.119.682.222,1.489-.117-.165-.234-.327-.347-.481-.018-.231-.037-.444-.053-.621l.025-.01a.153.153,0,0,0,.068-.2L23.5,9.656a.153.153,0,0,0-.288.083c.018.182.037.384.056.6-.1-.127-.186-.244-.262-.342a.153.153,0,0,0-.031-.252l-.305-.153a.153.153,0,0,0-.187.232c.008.01.384.481.834,1.089a12.272,12.272,0,0,1,.057,2.277c-.013.04-.037.088-.059.089-.092.013-.312-.193-.423-.414a.212.212,0,0,0-.2-.138c-.164.01-.228.191-.344.518a2.148,2.148,0,0,1-.3.646,1.734,1.734,0,0,1-.19-.6.152.152,0,0,0,.295-.051c0-.228-.159-1.961-.248-2.911a.153.153,0,0,0,.088-.19l-.153-.458a.153.153,0,0,0-.3.063c.1,1.089.3,3.192.3,3.482v-.008a.153.153,0,1,0-.3.043c.045.312.158.848.421.936a.255.255,0,0,0,.081.013.3.3,0,0,0,.215-.1,2.2,2.2,0,0,0,.378-.762c.022-.063.049-.138.074-.2.14.2.384.459.632.439a.375.375,0,0,0,.327-.3,8.594,8.594,0,0,0-.006-1.905c.129.18.257.365.38.547.048.457.082.915.082,1.291A.153.153,0,0,0,24.272,13.368Z" transform="translate(-11.876 -9.257)" fill="#f5f5f5"/>
        <path id="Path_9147" data-name="Path 9147" d="M27.406,12.58c-.108-.805-.259-1.738-.354-2.311a.15.15,0,0,0,.128-.027.153.153,0,0,0,.029-.214l-.277-.362a.153.153,0,0,0-.272.119c0,.016.275,1.582.443,2.836a1.43,1.43,0,0,1-.251,1.145.675.675,0,0,1-.56.209.153.153,0,0,0-.019.3l.076,0a.963.963,0,0,0,.726-.308A1.7,1.7,0,0,0,27.406,12.58Z" transform="translate(-13.853 -9.272)" fill="#f5f5f5"/>
        <path id="Path_9148" data-name="Path 9148" d="M25.392,16.551a.155.155,0,0,0,.008.214.065.065,0,0,1,.018.032.071.071,0,0,1-.023.034.153.153,0,1,0,.216.216.346.346,0,0,0,.112-.26.363.363,0,0,0-.12-.249A.151.151,0,0,0,25.392,16.551Z" transform="translate(-13.517 -12.237)" fill="#f5f5f5"/>
        <path id="Path_9149" data-name="Path 9149" d="M17.341,22.231H16.273v-.153a.153.153,0,0,0-.305,0v.153H7.879a2.13,2.13,0,0,0,1.374.458h6.715v.305a.153.153,0,0,0,.153.153h1.221a.458.458,0,0,0,0-.916Zm0,.61H16.273v-.153h1.221l-.027-.082a.148.148,0,0,1,.027.082A.153.153,0,0,1,17.341,22.841Z" transform="translate(-6.005 -14.569)" fill="#f5f5f5"/>
      </g>
    </g>
  </g>
</svg>
